<svg width="1280" height="652" viewBox="0 0 1280 652" fill="none" xmlns="http://www.w3.org/2000/svg">
<g clip-path="url(#clip0)">
<rect width="1280" height="652" fill="#121421"/>
<path d="M58.5002 602.414L10.4141 650.5L58.5001 698.586L106.586 650.5L58.5002 602.414Z" stroke="#FFF593" stroke-width="2"/>
<g clip-path="url(#clip1)">
<path d="M279.5 127C281.433 127 283 125.433 283 123.5C283 121.567 281.433 120 279.5 120C277.567 120 276 121.567 276 123.5C276 125.433 277.567 127 279.5 127Z" fill="#EC1D25"/>
<path d="M323.5 127C325.433 127 327 125.433 327 123.5C327 121.567 325.433 120 323.5 120C321.567 120 320 121.567 320 123.5C320 125.433 321.567 127 323.5 127Z" fill="#EC1D25"/>
<path d="M365.5 127C367.433 127 369 125.433 369 123.5C369 121.567 367.433 120 365.5 120C363.567 120 362 121.567 362 123.5C362 125.433 363.567 127 365.5 127Z" fill="#EC1D25"/>
<path d="M409.5 127C411.433 127 413 125.433 413 123.5C413 121.567 411.433 120 409.5 120C407.567 120 406 121.567 406 123.5C406 125.433 407.567 127 409.5 127Z" fill="#EC1D25"/>
<path d="M300.5 127C302.433 127 304 125.433 304 123.5C304 121.567 302.433 120 300.5 120C298.567 120 297 121.567 297 123.5C297 125.433 298.567 127 300.5 127Z" fill="#EC1D25"/>
<path d="M344.5 127C346.433 127 348 125.433 348 123.5C348 121.567 346.433 120 344.5 120C342.567 120 341 121.567 341 123.5C341 125.433 342.567 127 344.5 127Z" fill="#EC1D25"/>
<path d="M386.5 127C388.433 127 390 125.433 390 123.5C390 121.567 388.433 120 386.5 120C384.567 120 383 121.567 383 123.5C383 125.433 384.567 127 386.5 127Z" fill="#EC1D25"/>
<path d="M430.5 127C432.433 127 434 125.433 434 123.5C434 121.567 432.433 120 430.5 120C428.567 120 427 121.567 427 123.5C427 125.433 428.567 127 430.5 127Z" fill="#EC1D25"/>
<path d="M453.5 127C455.433 127 457 125.433 457 123.5C457 121.567 455.433 120 453.5 120C451.567 120 450 121.567 450 123.5C450 125.433 451.567 127 453.5 127Z" fill="#EC1D25"/>
<path d="M279.5 146C281.433 146 283 144.433 283 142.5C283 140.567 281.433 139 279.5 139C277.567 139 276 140.567 276 142.5C276 144.433 277.567 146 279.5 146Z" fill="#EC1D25"/>
<path d="M323.5 146C325.433 146 327 144.433 327 142.5C327 140.567 325.433 139 323.5 139C321.567 139 320 140.567 320 142.5C320 144.433 321.567 146 323.5 146Z" fill="#EC1D25"/>
<path d="M365.5 146C367.433 146 369 144.433 369 142.5C369 140.567 367.433 139 365.5 139C363.567 139 362 140.567 362 142.5C362 144.433 363.567 146 365.5 146Z" fill="#EC1D25"/>
<path d="M409.5 146C411.433 146 413 144.433 413 142.5C413 140.567 411.433 139 409.5 139C407.567 139 406 140.567 406 142.5C406 144.433 407.567 146 409.5 146Z" fill="#EC1D25"/>
<path d="M300.5 146C302.433 146 304 144.433 304 142.5C304 140.567 302.433 139 300.5 139C298.567 139 297 140.567 297 142.5C297 144.433 298.567 146 300.5 146Z" fill="#EC1D25"/>
<path d="M344.5 146C346.433 146 348 144.433 348 142.5C348 140.567 346.433 139 344.5 139C342.567 139 341 140.567 341 142.5C341 144.433 342.567 146 344.5 146Z" fill="#EC1D25"/>
<path d="M386.5 146C388.433 146 390 144.433 390 142.5C390 140.567 388.433 139 386.5 139C384.567 139 383 140.567 383 142.5C383 144.433 384.567 146 386.5 146Z" fill="#EC1D25"/>
<path d="M430.5 146C432.433 146 434 144.433 434 142.5C434 140.567 432.433 139 430.5 139C428.567 139 427 140.567 427 142.5C427 144.433 428.567 146 430.5 146Z" fill="#EC1D25"/>
<path d="M453.5 146C455.433 146 457 144.433 457 142.5C457 140.567 455.433 139 453.5 139C451.567 139 450 140.567 450 142.5C450 144.433 451.567 146 453.5 146Z" fill="#EC1D25"/>
<path d="M279.5 165C281.433 165 283 163.433 283 161.5C283 159.567 281.433 158 279.5 158C277.567 158 276 159.567 276 161.5C276 163.433 277.567 165 279.5 165Z" fill="#EC1D25"/>
<path d="M323.5 165C325.433 165 327 163.433 327 161.5C327 159.567 325.433 158 323.5 158C321.567 158 320 159.567 320 161.5C320 163.433 321.567 165 323.5 165Z" fill="#EC1D25"/>
<path d="M365.5 165C367.433 165 369 163.433 369 161.5C369 159.567 367.433 158 365.5 158C363.567 158 362 159.567 362 161.5C362 163.433 363.567 165 365.5 165Z" fill="#EC1D25"/>
<path d="M409.5 165C411.433 165 413 163.433 413 161.5C413 159.567 411.433 158 409.5 158C407.567 158 406 159.567 406 161.5C406 163.433 407.567 165 409.5 165Z" fill="#EC1D25"/>
<path d="M300.5 165C302.433 165 304 163.433 304 161.5C304 159.567 302.433 158 300.5 158C298.567 158 297 159.567 297 161.5C297 163.433 298.567 165 300.5 165Z" fill="#EC1D25"/>
<path d="M344.5 165C346.433 165 348 163.433 348 161.5C348 159.567 346.433 158 344.5 158C342.567 158 341 159.567 341 161.5C341 163.433 342.567 165 344.5 165Z" fill="#EC1D25"/>
<path d="M386.5 165C388.433 165 390 163.433 390 161.5C390 159.567 388.433 158 386.5 158C384.567 158 383 159.567 383 161.5C383 163.433 384.567 165 386.5 165Z" fill="#EC1D25"/>
<path d="M430.5 165C432.433 165 434 163.433 434 161.5C434 159.567 432.433 158 430.5 158C428.567 158 427 159.567 427 161.5C427 163.433 428.567 165 430.5 165Z" fill="#EC1D25"/>
<path d="M453.5 165C455.433 165 457 163.433 457 161.5C457 159.567 455.433 158 453.5 158C451.567 158 450 159.567 450 161.5C450 163.433 451.567 165 453.5 165Z" fill="#EC1D25"/>
</g>
<path d="M869.445 251H866.556V277H869.445V251Z" fill="#58A6A1"/>
<path d="M881 265.445V262.556H855V265.445H881Z" fill="#58A6A1"/>
</g>
<defs>
<clipPath id="clip0">
<rect width="1280" height="652" fill="white"/>
</clipPath>
<clipPath id="clip1">
<rect width="181" height="45" fill="white" transform="translate(276 120)"/>
</clipPath>
</defs>
</svg>
