<svg width="86" height="32" viewBox="0 0 86 32" fill="none" xmlns="http://www.w3.org/2000/svg">
<path fill-rule="evenodd" clip-rule="evenodd" d="M73.5801 1.59038L62.5396 3.14049L62.4905 14.3944L62.4414 25.6483H63.4899H64.5383V18.3338V11.0193H66.3467H68.155V18.3338V25.6483H72.1524H76.1498V17.0038V8.35943H73.1994H70.2489V6.74454V5.12965H77.9582H85.6675V2.56483V0L85.144 0.0201388C84.8562 0.0311581 79.6523 0.73772 73.5801 1.59038ZM68.155 6.45956V8.35943H66.3467H64.5383V6.45956V4.55969H66.3467H68.155V6.45956ZM79.7665 17.0038C79.7665 21.7583 79.8101 25.6483 79.8636 25.6483C79.9169 25.6483 80.5807 25.1929 81.3389 24.6362C82.0968 24.0795 83.3809 23.1794 84.1922 22.6356L85.6675 21.6469V15.0033V8.35943H82.717H79.7665V17.0038Z" fill="white"/>
<path fill-rule="evenodd" clip-rule="evenodd" d="M0.580441 13.0794C0.580441 18.0791 0.524477 22.9557 0.456141 23.9166L0.332031 25.6634L2.02655 25.6081L3.72125 25.5528L3.81643 24.6376L3.91161 23.7223L4.57784 24.4167C5.61678 25.4996 6.54532 25.8917 8.28971 25.9841C10.1968 26.0849 11.567 25.6208 12.9037 24.4214C16.1516 21.5066 16.3062 15.049 13.2 12.036C11.1147 10.0132 7.42703 9.90052 5.27186 11.7939L4.38749 12.571V8.28012V3.98926H2.48396H0.580441V13.0794ZM41.3158 8.1836V12.3779L40.7581 11.8213C39.7641 10.8292 38.9324 10.544 37.0329 10.5438C35.5409 10.5438 35.1792 10.6126 34.2321 11.0769C31.5902 12.3717 30.1105 15.3794 30.335 18.9982C30.5057 21.7512 31.5344 23.7798 33.3926 25.0277C34.5987 25.8378 35.603 26.0884 37.2232 25.9839C38.8193 25.8809 39.9618 25.3573 40.9827 24.2613L41.6965 23.4947V24.5713V25.6478H43.4097H45.1229V14.8185V3.98926H43.2193H41.3158V8.1836ZM50.7048 10.7222C47.3624 11.7654 45.3165 15.5678 45.8968 19.6573C46.2549 22.1792 47.5095 24.0635 49.4703 25.0246C50.392 25.4764 50.7818 25.5528 52.1659 25.5528C53.6027 25.5528 53.8977 25.4899 54.8008 24.9906C55.36 24.6815 55.9925 24.2113 56.2065 23.9457L56.5956 23.4629L56.4911 24.9104C56.3839 26.3975 55.9541 27.5425 55.2724 28.1579C54.1252 29.1933 51.7043 29.3687 49.367 28.5856C48.5759 28.3205 47.9062 28.1283 47.8788 28.1581C47.7204 28.3315 47.0603 30.8684 47.14 30.9973C47.1928 31.0826 47.8527 31.3459 48.6065 31.5824C49.7496 31.9411 50.3871 32.0103 52.4514 31.9994C55.6096 31.9831 56.6833 31.6187 58.2855 30.0196C59.1591 29.1477 59.4465 28.6942 59.8011 27.6282C60.2233 26.3587 60.241 26.0424 60.308 18.5708L60.3777 10.8288H58.758H57.1385L57.0128 11.6649L56.8872 12.5012L56.1717 11.7871C54.9447 10.5624 52.6496 10.1154 50.7048 10.7222ZM16.0447 16.1959C16.1326 22.0219 16.2333 22.6834 17.2574 24.1583C17.5452 24.5728 18.172 25.1415 18.6506 25.4223C19.4297 25.8796 19.7091 25.9328 21.3288 25.9328C23.3902 25.9328 23.9559 25.7209 25.2682 24.4579L26.0667 23.6892L26.1969 24.6686L26.3271 25.6478H28.0431H29.7593L29.6381 24.3654C29.5713 23.66 29.5161 20.3259 29.5153 16.9559L29.514 10.8288H27.6105H25.7069V15.5661C25.7069 18.4442 25.6276 20.5134 25.505 20.8383C25.1968 21.6541 24.1851 22.5932 23.3818 22.809C22.5269 23.0387 21.3585 22.7856 20.8905 22.2694C20.0837 21.3795 19.9964 20.736 19.9964 15.6795V10.8288H17.9802H15.9638L16.0447 16.1959ZM9.08633 13.6913C10.4807 14.2185 11.2718 15.6174 11.389 17.7633C11.4819 19.4628 11.2602 20.5303 10.6164 21.484C9.49083 23.151 6.98275 23.4901 5.55872 22.1678C4.65322 21.3271 4.38749 20.4872 4.38749 18.4642C4.38749 16.5085 4.57327 15.6562 5.19325 14.7678C5.94438 13.6915 7.75958 13.1896 9.08633 13.6913ZM39.2981 13.7535C40.7535 14.3603 41.4803 16.3776 41.2206 19.0898C41.0607 20.7607 40.7863 21.4154 39.932 22.1642C39.1331 22.8643 38.0598 23.0995 36.984 22.8103C35.2449 22.343 34.4361 21.0723 34.3156 18.6183C34.1616 15.4833 35.5323 13.4932 37.848 13.4898C38.2963 13.4892 38.9488 13.6077 39.2981 13.7535ZM54.957 13.8878C55.313 14.1072 55.7942 14.6416 56.0264 15.0752C56.3969 15.7666 56.4479 16.1439 56.4418 18.1433C56.4363 19.9119 56.3624 20.5578 56.1125 21.0239C55.1573 22.8044 52.7564 23.2807 51.2758 21.9831C50.1718 21.0157 49.8053 20.0888 49.7952 18.2383C49.7831 15.9807 50.542 14.3329 51.8573 13.7616C52.7733 13.3636 54.2017 13.4217 54.957 13.8878Z" fill="white"/>
</svg>
